<svg width="17" height="17" viewBox="0 0 17 17" fill="none" xmlns="http://www.w3.org/2000/svg">
<path d="M16.5446 5.3125H0.455357C0.204911 5.3125 0 5.1332 0 4.91406V3.71875C0 2.83887 0.815848 2.125 1.82143 2.125H3.64286V0.398438C3.64286 0.179297 3.84777 0 4.09821 0H5.61607C5.86652 0 6.07143 0.179297 6.07143 0.398438V2.125H10.9286V0.398438C10.9286 0.179297 11.1335 0 11.3839 0H12.9018C13.1522 0 13.3571 0.179297 13.3571 0.398438V2.125H15.1786C16.1842 2.125 17 2.83887 17 3.71875V4.91406C17 5.1332 16.7951 5.3125 16.5446 5.3125ZM0.455357 6.375H16.5446C16.7951 6.375 17 6.5543 17 6.77344V15.4062C17 16.2861 16.1842 17 15.1786 17H1.82143C0.815848 17 0 16.2861 0 15.4062V6.77344C0 6.5543 0.204911 6.375 0.455357 6.375ZM4.85714 13.1484C4.85714 12.9293 4.65223 12.75 4.40179 12.75H2.88393C2.63348 12.75 2.42857 12.9293 2.42857 13.1484V14.4766C2.42857 14.6957 2.63348 14.875 2.88393 14.875H4.40179C4.65223 14.875 4.85714 14.6957 4.85714 14.4766V13.1484ZM4.85714 8.89844C4.85714 8.6793 4.65223 8.5 4.40179 8.5H2.88393C2.63348 8.5 2.42857 8.6793 2.42857 8.89844V10.2266C2.42857 10.4457 2.63348 10.625 2.88393 10.625H4.40179C4.65223 10.625 4.85714 10.4457 4.85714 10.2266V8.89844ZM9.71429 13.1484C9.71429 12.9293 9.50937 12.75 9.25893 12.75H7.74107C7.49063 12.75 7.28571 12.9293 7.28571 13.1484V14.4766C7.28571 14.6957 7.49063 14.875 7.74107 14.875H9.25893C9.50937 14.875 9.71429 14.6957 9.71429 14.4766V13.1484ZM9.71429 8.89844C9.71429 8.6793 9.50937 8.5 9.25893 8.5H7.74107C7.49063 8.5 7.28571 8.6793 7.28571 8.89844V10.2266C7.28571 10.4457 7.49063 10.625 7.74107 10.625H9.25893C9.50937 10.625 9.71429 10.4457 9.71429 10.2266V8.89844ZM14.5714 13.1484C14.5714 12.9293 14.3665 12.75 14.1161 12.75H12.5982C12.3478 12.75 12.1429 12.9293 12.1429 13.1484V14.4766C12.1429 14.6957 12.3478 14.875 12.5982 14.875H14.1161C14.3665 14.875 14.5714 14.6957 14.5714 14.4766V13.1484ZM14.5714 8.89844C14.5714 8.6793 14.3665 8.5 14.1161 8.5H12.5982C12.3478 8.5 12.1429 8.6793 12.1429 8.89844V10.2266C12.1429 10.4457 12.3478 10.625 12.5982 10.625H14.1161C14.3665 10.625 14.5714 10.4457 14.5714 10.2266V8.89844Z" fill="#8C8C8C"/>
</svg>
