<svg width="20" height="18" viewBox="0 0 20 18" fill="none" xmlns="http://www.w3.org/2000/svg">
<path d="M11.5625 0H19.0625C19.5803 0 20 0.431719 20 0.964286V7.39286C20 7.92542 19.5803 8.35714 19.0625 8.35714H11.5625C11.0447 8.35714 10.625 7.92542 10.625 7.39286V0.964286C10.625 0.431719 11.0447 0 11.5625 0ZM8.4375 0H0.9375C0.419727 0 0 0.431719 0 0.964286V7.39286C0 7.92542 0.419727 8.35714 0.9375 8.35714H8.4375C8.95527 8.35714 9.375 7.92542 9.375 7.39286V0.964286C9.375 0.431719 8.95527 0 8.4375 0ZM0 10.6071V17.0357C0 17.5683 0.419727 18 0.9375 18H8.4375C8.95527 18 9.375 17.5683 9.375 17.0357V10.6071C9.375 10.0746 8.95527 9.64286 8.4375 9.64286H0.9375C0.419727 9.64286 0 10.0746 0 10.6071ZM11.5625 18H19.0625C19.5803 18 20 17.5683 20 17.0357V10.6071C20 10.0746 19.5803 9.64286 19.0625 9.64286H11.5625C11.0447 9.64286 10.625 10.0746 10.625 10.6071V17.0357C10.625 17.5683 11.0447 18 11.5625 18Z" fill="#999999"/>
</svg>
