<svg width="20" height="18" viewBox="0 0 20 18" fill="none" xmlns="http://www.w3.org/2000/svg">
<path d="M5.83332 7.39286V10.6071C5.83332 11.1397 5.41359 11.5714 4.89582 11.5714H0.9375C0.419727 11.5714 0 11.1397 0 10.6071V7.39286C0 6.86029 0.419727 6.42857 0.9375 6.42857H4.89582C5.41359 6.42857 5.83332 6.86029 5.83332 7.39286ZM0 13.8214V17.0357C0 17.5683 0.419727 18 0.9375 18H4.89582C5.41359 18 5.83332 17.5683 5.83332 17.0357V13.8214C5.83332 13.2889 5.41359 12.8571 4.89582 12.8571H0.9375C0.419727 12.8571 0 13.2889 0 13.8214ZM4.89582 0H0.9375C0.419727 0 0 0.431719 0 0.964286V4.17857C0 4.71114 0.419727 5.14286 0.9375 5.14286H4.89582C5.41359 5.14286 5.83332 4.71114 5.83332 4.17857V0.964286C5.83332 0.431719 5.41359 0 4.89582 0ZM8.02082 18H19.0625C19.5803 18 20 17.5683 20 17.0357V13.8214C20 13.2889 19.5803 12.8571 19.0625 12.8571H8.02082C7.50305 12.8571 7.08332 13.2889 7.08332 13.8214V17.0357C7.08332 17.5683 7.50305 18 8.02082 18ZM7.08332 0.964286V4.17857C7.08332 4.71114 7.50305 5.14286 8.02082 5.14286H19.0625C19.5803 5.14286 20 4.71114 20 4.17857V0.964286C20 0.431719 19.5803 0 19.0625 0H8.02082C7.50305 0 7.08332 0.431719 7.08332 0.964286ZM8.02082 11.5714H19.0625C19.5803 11.5714 20 11.1397 20 10.6071V7.39286C20 6.86029 19.5803 6.42857 19.0625 6.42857H8.02082C7.50305 6.42857 7.08332 6.86029 7.08332 7.39286V10.6071C7.08332 11.1397 7.50305 11.5714 8.02082 11.5714Z" fill="#24B383"/>
</svg>
