<svg width="19" height="14" viewBox="0 0 19 14" fill="none" xmlns="http://www.w3.org/2000/svg">
<path d="M17.9608 4.62292C18.1003 4.5099 18.3077 4.61562 18.3077 4.79427V12.25C18.3077 13.2161 17.5389 14 16.5913 14H1.71635C0.76878 14 0 13.2161 0 12.25V4.79792C0 4.61562 0.203816 4.51354 0.346845 4.62656C1.14781 5.26094 2.2098 6.06667 5.85703 8.76823C6.61151 9.32969 7.88447 10.5109 9.15385 10.5036C10.4304 10.5146 11.7284 9.30781 12.4542 8.76823C16.1015 6.06667 17.1599 5.25729 17.9608 4.62292ZM9.15385 9.33333C9.98341 9.34792 11.1777 8.26875 11.7784 7.82396C16.5234 4.31302 16.8846 4.00677 17.9787 3.13177C18.1861 2.96771 18.3077 2.7125 18.3077 2.44271V1.75C18.3077 0.783854 17.5389 0 16.5913 0H1.71635C0.76878 0 0 0.783854 0 1.75V2.44271C0 2.7125 0.121575 2.96406 0.328966 3.13177C1.42314 4.00312 1.78429 4.31302 6.52927 7.82396C7.12999 8.26875 8.32428 9.34792 9.15385 9.33333Z" fill="#999999"/>
</svg>
