<svg width="15" height="15" viewBox="0 0 15 15" fill="none" xmlns="http://www.w3.org/2000/svg">
<path d="M7.5 0C10.0888 0 12.1875 2.09865 12.1875 4.6875C12.1875 7.27635 10.0888 9.375 7.5 9.375C4.91115 9.375 2.8125 7.27635 2.8125 4.6875C2.8125 2.09865 4.91115 0 7.5 0ZM12.8696 9.77991L10.7804 9.25761C8.58536 10.8364 5.92477 10.4841 4.21963 9.25761L2.13038 9.77991C0.87835 10.0929 0 11.2179 0 12.5084V13.5938C0 14.3704 0.62959 15 1.40625 15H13.5938C14.3704 15 15 14.3704 15 13.5938V12.5084C15 11.2179 14.1216 10.0929 12.8696 9.77991Z" fill="#24B383"/>
</svg>
