<svg width="17" height="18" viewBox="0 0 17 18" fill="none" xmlns="http://www.w3.org/2000/svg">
<path d="M15.1786 7.875H14.2679V5.34375C14.2679 2.39766 11.6799 0 8.5 0C5.32009 0 2.73214 2.39766 2.73214 5.34375V7.875H1.82143C0.815848 7.875 0 8.63086 0 9.5625V16.3125C0 17.2441 0.815848 18 1.82143 18H15.1786C16.1842 18 17 17.2441 17 16.3125V9.5625C17 8.63086 16.1842 7.875 15.1786 7.875ZM11.2321 7.875H5.76786V5.34375C5.76786 3.94805 6.99353 2.8125 8.5 2.8125C10.0065 2.8125 11.2321 3.94805 11.2321 5.34375V7.875Z" fill="#999999"/>
</svg>
