<svg width="17" height="18" viewBox="0 0 17 18" fill="none" xmlns="http://www.w3.org/2000/svg">
<path d="M16.3823 0.865353L12.9292 0.0217078C12.5535 -0.0700853 12.1695 0.136036 12.0176 0.51147L10.4238 4.44887C10.3557 4.61706 10.3412 4.80413 10.3822 4.98187C10.4233 5.15961 10.5179 5.31839 10.6517 5.43426L12.6643 7.17788C11.4699 9.87348 9.37928 12.1176 6.77911 13.4093L5.13236 11.2782C5.02293 11.1366 4.87297 11.0365 4.70511 10.993C4.53724 10.9495 4.36056 10.9649 4.20171 11.037L0.48306 12.7245C0.128583 12.8853 -0.06622 13.2919 0.0205066 13.6897L0.817283 17.346C0.900091 17.7259 1.22014 18 1.59374 18C10.0966 18 17 10.7039 17 1.68748C17 1.29458 16.7439 0.953666 16.3823 0.865353Z" fill="#8C8C8C"/>
</svg>
