<svg width="17" height="17" viewBox="0 0 17 17" fill="none" xmlns="http://www.w3.org/2000/svg">
<path d="M8.5 0C3.8131 0 0 3.8131 0 8.5C0 13.1869 3.8131 17 8.5 17C13.1869 17 17 13.1869 17 8.5C17 3.8131 13.1869 0 8.5 0ZM8.5 15.1913C4.81043 15.1913 1.80848 12.1897 1.80848 8.5C1.80848 4.81025 4.81043 1.80866 8.5 1.80866C12.1896 1.80866 15.1915 4.81025 15.1915 8.5C15.1915 12.1897 12.1896 15.1913 8.5 15.1913Z" fill="#8C8C8C"/>
<path d="M12.9296 8.23752H9.10971V3.64458C9.10971 3.25807 8.79634 2.9447 8.40984 2.9447C8.02333 2.9447 7.70996 3.25807 7.70996 3.64458V8.93739C7.70996 9.3239 8.02333 9.63727 8.40984 9.63727H12.9296C13.3161 9.63727 13.6295 9.3239 13.6295 8.93739C13.6295 8.55089 13.3161 8.23752 12.9296 8.23752Z" fill="#8C8C8C"/>
</svg>
