<svg width="19" height="18" viewBox="0 0 19 18" fill="none" xmlns="http://www.w3.org/2000/svg">
<path d="M18.07 3.96485V0.509807C18.07 0.347616 17.9864 0.192969 17.851 0.0986719C17.7116 0.00437502 17.5325 -0.0258 17.3692 0.0232344L6.50393 3.29345C6.28097 3.36135 6.12967 3.55748 6.12967 3.78002V7.23883V7.24261V13.8547C5.56033 13.4813 4.83173 13.2776 4.0673 13.2776C3.25907 13.2776 2.49065 13.5077 1.90538 13.9226C1.27632 14.3715 0.929932 14.9787 0.929932 15.6388C0.929932 16.2989 1.27632 16.9062 1.90538 17.355C2.49065 17.7699 3.25508 18 4.0673 18C4.87951 18 5.64394 17.7699 6.22921 17.355C6.85827 16.9062 7.20466 16.2989 7.20466 15.6388V7.61225L16.995 4.66264V10.5694C16.4256 10.196 15.697 9.9923 14.9326 9.9923C14.1244 9.9923 13.356 10.2224 12.7707 10.6373C12.1416 11.0861 11.7952 11.6934 11.7952 12.3535C11.7952 13.0136 12.1416 13.6208 12.7707 14.0697C13.356 14.4846 14.1204 14.7147 14.9326 14.7147C15.7448 14.7147 16.5093 14.4846 17.0945 14.0697C17.7236 13.6208 18.07 13.0136 18.07 12.3535V3.96862C18.07 3.96485 18.07 3.96485 18.07 3.96485Z" fill="#444444"/>
</svg>
