<svg width="20" height="20" viewBox="0 0 20 20" fill="none" xmlns="http://www.w3.org/2000/svg">
<path d="M18.5422 4.30492H13.2482L12.1792 2.509C12.0746 2.33341 11.8854 2.22583 11.6811 2.22583H8.31882C8.11447 2.22583 7.92521 2.33341 7.82069 2.509L6.75166 4.30492H5.01445V3.90909C5.01445 3.58896 4.7549 3.32941 4.43477 3.32941H2.28989C1.96969 3.32941 1.71021 3.58896 1.71021 3.90909V4.30492H1.45769C0.65257 4.30492 0 4.95755 0 5.76255V16.3165C0 17.1216 0.65257 17.7742 1.45763 17.7742H18.5422C19.3473 17.7742 19.9999 17.1216 19.9999 16.3165V5.76255C20 4.95755 19.3473 4.30492 18.5422 4.30492ZM9.99994 15.1887C7.70842 15.1887 5.85081 13.3311 5.85081 11.0395C5.85081 8.74802 7.70842 6.89034 9.99994 6.89034C12.2914 6.89034 14.1491 8.74802 14.1491 11.0395C14.1491 13.3311 12.2914 15.1887 9.99994 15.1887ZM17.6328 7.31011H15.8164C15.4962 7.31011 15.2367 7.05057 15.2367 6.73037C15.2367 6.41017 15.4962 6.15063 15.8164 6.15063H17.6328C17.9531 6.15063 18.2125 6.41017 18.2125 6.73037C18.2125 7.05057 17.953 7.31011 17.6328 7.31011Z" fill="#444444"/>
<path d="M9.99991 13.9381C11.6007 13.9381 12.8985 12.6403 12.8985 11.0395C12.8985 9.43861 11.6007 8.14087 9.99991 8.14087C8.39906 8.14087 7.10132 9.43861 7.10132 11.0395C7.10132 12.6403 8.39906 13.9381 9.99991 13.9381Z" fill="#444444"/>
</svg>
