<svg width="21" height="24" viewBox="0 0 21 24" fill="none" xmlns="http://www.w3.org/2000/svg">
<g clip-path="url(#clip0)">
<path d="M21 15.3491C21 14.991 20.8156 14.6919 20.5532 14.5438V8.98933C20.6127 8.96365 20.6497 8.89944 20.649 8.82767C20.649 8.75591 20.608 8.69245 20.5505 8.66904L10.5228 4.62686C10.3946 4.57474 10.2545 4.57474 10.1256 4.62686L0.0991556 8.66979C0.0403283 8.69321 0.000669539 8.75666 8.55863e-06 8.82843C-0.000652421 8.90019 0.0370234 8.9644 0.0951897 8.99008L10.1077 13.444C10.2472 13.5051 10.4012 13.5051 10.5407 13.444L19.8618 9.29527V14.5431C19.6001 14.6904 19.4156 14.9918 19.4156 15.3476C19.4156 15.7192 19.6139 16.0418 19.8975 16.18C19.6139 16.8199 19.4156 18.1328 19.4156 18.5074C19.4156 19.0068 19.7706 19.4117 20.2075 19.4117C20.6437 19.4117 20.9987 19.0068 20.9987 18.5074C20.9987 18.1328 20.7997 16.8199 20.5168 16.18C20.8011 16.0433 21 15.7208 21 15.3491Z" fill="#444444"/>
<path d="M3.23083 11.2329C3.2315 12.5141 3.23216 14.0219 3.23216 14.2613C3.23216 16.6469 6.3738 18.5891 10.3245 18.7107C14.2745 18.5891 17.4161 16.6492 17.4161 14.2613C17.4161 14.0234 17.4161 12.5148 17.4175 11.2329L10.5393 14.2931C10.3998 14.355 10.2458 14.355 10.1064 14.2931L3.23083 11.2329Z" fill="#444444"/>
</g>
<defs>
<clipPath id="clip0">
<rect width="21" height="24" fill="white"/>
</clipPath>
</defs>
</svg>
