<svg width="18" height="22" viewBox="0 0 18 22" fill="none" xmlns="http://www.w3.org/2000/svg">
<path d="M13.0049 1.66717H11.2489C11.0297 1.66095 10.8415 1.52285 10.7867 1.32831C10.6203 0.535835 9.84898 -0.0274525 8.96913 0.00103353C8.08398 -0.0131824 7.31641 0.55924 7.15154 1.35658C7.09457 1.54576 6.90334 1.6743 6.68941 1.66722H4.995V4.49123H13.0049V1.66717Z" fill="#444444"/>
<path d="M17.9341 20.7009V4.51937C17.936 3.87993 17.372 3.36015 16.6744 3.35842C16.6424 3.35837 16.6105 3.35939 16.5786 3.3615H13.9291V4.80175C13.9291 5.02769 13.7751 5.33833 13.5286 5.33833H4.4405C4.19402 5.33833 4.07083 5.02769 4.07083 4.80175V3.36156H1.42139C0.725692 3.31475 0.120277 3.79382 0.0692705 4.43159C0.0669118 4.46083 0.0657915 4.49013 0.0659094 4.51943V20.7009C0.0486911 21.4026 0.655285 21.9842 1.42074 21.9999C1.42097 21.9999 1.42121 21.9999 1.42144 21.9999H16.5786C17.3441 21.9845 17.951 21.4032 17.9342 20.7015C17.9341 20.7013 17.9341 20.7011 17.9341 20.7009ZM6.50458 16.9732L4.10161 19.0347C4.02478 19.119 3.91316 19.1702 3.79357 19.1759C3.66485 19.1713 3.5432 19.1206 3.45469 19.0347L2.19161 17.8487C2.02373 17.6763 2.03747 17.4125 2.22239 17.2556C2.40207 17.0942 2.68965 17.0942 2.86932 17.2556L3.79351 18.1593L5.88843 16.3519C6.09847 16.2191 6.38629 16.2674 6.53123 16.4599C6.64952 16.617 6.63855 16.8272 6.50458 16.9732ZM6.50458 12.4548L4.10161 14.5163C4.02478 14.6006 3.91316 14.6517 3.79357 14.6575C3.66485 14.6529 3.5432 14.6022 3.45469 14.5163L2.19161 13.3303C2.02373 13.1579 2.03747 12.8941 2.22239 12.7372C2.40207 12.5758 2.68965 12.5758 2.86932 12.7372L3.79351 13.6409L5.88843 11.8335C6.09847 11.7007 6.38629 11.749 6.53123 11.9415C6.64952 12.0986 6.63855 12.3088 6.50458 12.4548ZM6.50458 7.9364L4.10161 9.99793C4.02478 10.0822 3.91316 10.1333 3.79357 10.1391C3.66485 10.1345 3.5432 10.0838 3.45469 9.99793L2.19161 8.81184C2.02373 8.63952 2.03747 8.37569 2.22239 8.21882C2.40207 8.05737 2.68965 8.05737 2.86932 8.21882L3.79351 9.12249L5.88843 7.31511C6.09847 7.18225 6.38629 7.23057 6.53123 7.42311C6.64952 7.58019 6.63855 7.79035 6.50458 7.9364ZM15.4695 18.6111H8.3838C8.12859 18.6111 7.92168 18.4215 7.92168 18.1875C7.92168 17.9536 8.12859 17.7639 8.3838 17.7639H15.4695C15.7247 17.7639 15.9316 17.9536 15.9316 18.1875C15.9316 18.4215 15.7247 18.6111 15.4695 18.6111ZM15.4695 14.0927H8.3838C8.12859 14.0927 7.92168 13.9031 7.92168 13.6691C7.92168 13.4352 8.12859 13.2455 8.3838 13.2455H15.4695C15.7247 13.2455 15.9316 13.4352 15.9316 13.6691C15.9316 13.9031 15.7247 14.0927 15.4695 14.0927ZM15.4695 9.57432H8.3838C8.12859 9.57432 7.92168 9.38464 7.92168 9.1507C7.92168 8.91676 8.12859 8.72709 8.3838 8.72709H15.4695C15.7247 8.72709 15.9316 8.91676 15.9316 9.1507C15.9316 9.3847 15.7247 9.57432 15.4695 9.57432Z" fill="#444444"/>
</svg>
