<svg width="20" height="17" viewBox="0 0 20 17" fill="none" xmlns="http://www.w3.org/2000/svg">
<path d="M20 1.88256C20 1.1264 19.2789 0.513428 18.3893 0.513428H1.61074C0.721141 0.513428 0 1.1264 0 1.88256V15.1175C0 15.8736 0.721141 16.4866 1.61074 16.4866H18.3893C19.2789 16.4866 20 15.8736 20 15.1175V1.88256ZM6.10738 2.22484H8.99329V4.16443H6.10738V2.22484ZM4.09396 14.7752H2.01342V12.8356H4.09396V14.7752ZM4.09396 4.16443H2.01342V2.22484H4.09396V4.16443ZM8.99329 14.7752H6.10738V12.8356H8.99329V14.7752ZM8.25503 10.0807V6.91929C8.25503 6.44865 8.64886 6.27454 9.11208 6.53234L11.8126 8.03108C12.2758 8.28887 12.2795 8.71074 11.8163 8.96859L9.1102 10.4676C8.64698 10.7255 8.25503 10.5513 8.25503 10.0807ZM13.8926 14.7752H11.0067V12.8356H13.8926V14.7752ZM13.8926 4.16443H11.0067V2.22484H13.8926V4.16443ZM17.9866 14.7752H15.906V12.8356H17.9866V14.7752ZM17.9866 4.16443H15.906V2.22484H17.9866V4.16443Z" fill="#444444"/>
</svg>
