<svg width="21" height="19" viewBox="0 0 21 19" fill="none" xmlns="http://www.w3.org/2000/svg">
<path d="M8.6543 10.0566H12.3457V11.1699H8.6543V10.0566Z" fill="#444444"/>
<path d="M17.037 11.1698H13.5762V11.7265C13.5762 12.0341 13.3009 12.2831 12.9609 12.2831H8.03906C7.69908 12.2831 7.42383 12.0341 7.42383 11.7265V11.1698H3.96297C3.1675 11.1698 2.46398 10.711 2.21212 10.0283L0 4.02295V16.1796C0 17.1004 0.828003 17.8495 1.8457 17.8495H19.1543C20.172 17.8495 21 17.1004 21 16.1796V4.02338L18.7877 10.0283C18.536 10.711 17.8325 11.1698 17.037 11.1698Z" fill="#444444"/>
<path d="M12.961 1.15039H8.0391C7.0214 1.15039 6.1934 1.89954 6.1934 2.82031V3.37695H1.05859L3.37902 9.67612C3.46313 9.90385 3.69801 10.0566 3.96301 10.0566H7.42387V9.5C7.42387 9.1924 7.69912 8.94336 8.0391 8.94336H12.961C13.301 8.94336 13.5762 9.1924 13.5762 9.5V10.0566H17.0371C17.3021 10.0566 17.5369 9.90385 17.6211 9.67612L19.9416 3.37695H14.8067V2.82031C14.8067 1.89954 13.9787 1.15039 12.961 1.15039ZM7.42387 3.37695V2.82031C7.42387 2.51315 7.6996 2.26367 8.0391 2.26367H12.961C13.3005 2.26367 13.5762 2.51315 13.5762 2.82031V3.37695H7.42387Z" fill="#444444"/>
</svg>
