<svg width="20" height="20" viewBox="0 0 20 20" fill="none" xmlns="http://www.w3.org/2000/svg">
<path d="M19.6495 14.0615H6.70489C6.51163 14.0615 6.35445 13.9042 6.35445 13.711V5.59665C6.35445 5.40338 6.51172 5.24621 6.70489 5.24621H19.6495C19.8427 5.24621 19.9999 5.40348 19.9999 5.59665V13.711C20 13.9043 19.8427 14.0615 19.6495 14.0615ZM16.0623 16.6226H14.751V15.0451H11.6036V16.6226H10.2921C10.0205 16.6226 9.80034 16.8427 9.80034 17.1144C9.80034 17.386 10.0205 17.6061 10.2921 17.6061H12.0954H14.2592H16.0623C16.334 17.6061 16.5541 17.386 16.5541 17.1144C16.5541 16.8427 16.3339 16.6226 16.0623 16.6226ZM7.8531 4.26255H6.70489C6.63309 4.26255 6.56316 4.26983 6.49432 4.28085C6.45389 4.27013 6.41229 4.26255 6.36852 4.26255H1.48458C1.21292 4.26255 0.9928 4.48267 0.9928 4.75433C0.9928 5.02599 1.21292 5.24611 1.48458 5.24611H5.41919C5.3886 5.35804 5.3709 5.47518 5.3709 5.59655V6.51214H1.48458C1.21292 6.51214 0.9928 6.73226 0.9928 7.00392C0.9928 7.27558 1.21292 7.49569 1.48458 7.49569H5.3709V8.76183H1.48458C1.21292 8.76183 0.9928 8.98194 0.9928 9.2536C0.9928 9.52526 1.21292 9.74538 1.48458 9.74538H5.3709V13.7109C5.3709 14.4465 5.96939 15.045 6.70489 15.045H7.8531V17.1143C7.8531 17.3859 7.63298 17.606 7.36132 17.606H0.491778C0.22012 17.606 0 17.3859 0 17.1143V2.88558C0 2.61392 0.22012 2.3938 0.491778 2.3938H7.36132C7.63298 2.3938 7.8531 2.61392 7.8531 2.88558V4.26255ZM3.16842 13.9728C3.16842 14.3915 3.50785 14.7309 3.92655 14.7309C4.34525 14.7309 4.68467 14.3915 4.68467 13.9728C4.68467 13.5541 4.34525 13.2147 3.92655 13.2147C3.50785 13.2147 3.16842 13.5541 3.16842 13.9728Z" fill="#444444"/>
</svg>
