<svg width="19" height="17" viewBox="0 0 19 17" fill="none" xmlns="http://www.w3.org/2000/svg">
<path d="M7.99937 16.3647C11.8667 16.3634 15.0008 13.3838 14.9991 9.70986C14.9984 7.68344 14.0251 5.76757 12.3559 4.50619C12.2942 4.45962 12.2518 4.39375 12.2365 4.32024C11.8744 2.58082 10.9214 1.34256 9.55291 0.83127C9.10909 0.666542 8.63628 0.582935 8.15976 0.584494C5.74094 0.584494 3.09436 2.63244 1.78522 5.74033C1.34773 6.76636 1.09632 7.85544 1.04164 8.96129C1.01261 9.21059 0.997612 9.46149 0.996948 9.71238C1.00164 13.3845 4.13404 16.3603 7.99937 16.3647ZM11.3338 10.9795C12.2545 10.9795 13.0011 11.6888 13.0011 12.5634C13.0011 13.438 12.2545 14.1473 11.3338 14.1473C10.4132 14.1473 9.66658 13.438 9.66658 12.5634C9.66795 11.6891 10.4135 10.9805 11.3338 10.9795ZM9.66658 14.1473C9.66658 15.0219 8.91999 15.7312 7.99933 15.7312C7.07867 15.7312 6.33207 15.0219 6.33207 14.1473C6.33207 13.2726 7.07867 12.5634 7.99933 12.5634C8.91967 12.5643 9.66561 13.273 9.66658 14.1473ZM6.33211 2.10979C7.25277 2.10979 7.99937 2.81906 7.99937 3.69368C7.99937 4.56831 7.25277 5.27758 6.33211 5.27758C5.41145 5.27758 4.6649 4.56827 4.6649 3.69368C4.66622 2.81936 5.4118 2.11076 6.33211 2.10979ZM1.33038 9.39562C1.33038 8.52099 2.07698 7.81173 2.99764 7.81173C3.9183 7.81173 4.6649 8.52099 4.6649 9.39562C4.6649 10.2702 3.9183 10.9795 2.99764 10.9795C2.07733 10.9782 1.33175 10.2699 1.33038 9.39562ZM4.33142 10.9795C5.25208 10.9795 5.99868 11.6888 5.99868 12.5634C5.99868 13.438 5.25208 14.1473 4.33142 14.1473C3.41076 14.1473 2.66416 13.438 2.66416 12.5634C2.66553 11.6891 3.41111 10.9805 4.33142 10.9795Z" fill="#444444"/>
<path d="M17.3282 16.3647H18.0105L18.2962 4.96082H17.0425L17.3282 16.3647Z" fill="#FFFCE9"/>
<path d="M17.0265 4.32725H18.3123L18.3283 3.69373H17.0105L17.0265 4.32725Z" fill="#FFFCE9"/>
</svg>
