<svg width="20" height="19" viewBox="0 0 20 19" fill="none" xmlns="http://www.w3.org/2000/svg">
<path d="M8.83006 3.20435H8.82873C8.61743 3.20603 8.44683 3.36951 8.44653 3.57052C8.44609 3.77139 8.6161 3.93515 8.82769 3.93768H8.82902C9.04031 3.93585 9.21092 3.77251 9.21136 3.5715C9.21166 3.37049 9.04165 3.20674 8.83006 3.20435Z" fill="#444444"/>
<path d="M0.606079 15.7353C0.606967 16.5547 1.3061 17.2187 2.16858 17.2197H17.7936C18.6561 17.2187 19.3552 16.5547 19.3561 15.7353V6.0647H0.606079V15.7353ZM11.883 9.71828C11.7435 9.60555 11.7269 9.40679 11.8456 9.27424C11.9641 9.14196 12.1733 9.12594 12.3128 9.23881L14.4573 10.9737C14.5313 11.0337 14.5739 11.1213 14.5739 11.2136C14.5739 11.3058 14.5313 11.3935 14.4573 11.4533L12.3128 13.1882C12.1733 13.301 11.9641 13.285 11.8456 13.1527C11.7269 13.0203 11.7435 12.8217 11.883 12.7088L13.7311 11.2136L11.883 9.71828ZM8.89709 14.1848L10.2338 8.1559C10.2714 7.98567 10.4473 7.87673 10.6263 7.91258C10.8055 7.94842 10.9201 8.11555 10.8823 8.28564L9.54577 14.3146C9.50789 14.4849 9.33226 14.5937 9.15307 14.5578C8.97404 14.522 8.85936 14.355 8.89709 14.1848ZM5.50487 10.9737L7.64931 9.23881C7.78884 9.12594 7.99806 9.14196 8.11658 9.27424C8.23525 9.40679 8.21868 9.60555 8.07915 9.71828L6.23108 11.2136L8.07944 12.7088C8.21868 12.8217 8.2354 13.0203 8.11673 13.1527C7.99821 13.285 7.78884 13.301 7.64946 13.1882L5.50502 11.4533C5.43104 11.3935 5.38842 11.3058 5.38842 11.2136C5.38842 11.1213 5.43104 11.0337 5.50502 10.9737H5.50487Z" fill="#444444"/>
<path d="M5.60744 3.1947H5.6061C5.39703 3.19976 5.23013 3.36212 5.22998 3.56088C5.22968 3.7595 5.39585 3.92227 5.60492 3.92789H5.6061C5.81518 3.92283 5.98193 3.76048 5.98238 3.562C5.98252 3.36324 5.81621 3.20047 5.60729 3.1947H5.60744Z" fill="#444444"/>
<path d="M17.7936 1.65234H2.16858C1.3061 1.65319 0.606967 2.31736 0.606079 3.13672V5.43497H19.3561V3.13672C19.3552 2.31736 18.6561 1.65319 17.7936 1.65234ZM2.38342 4.54828H2.38017C1.8003 4.54744 1.33095 4.1003 1.3314 3.54942C1.33184 2.99854 1.80192 2.55225 2.3818 2.55225C2.96181 2.55225 3.43204 2.99854 3.43234 3.54942C3.43293 4.1003 2.96344 4.54744 2.38342 4.54828ZM6.655 3.56446C6.65263 4.11337 6.18373 4.55728 5.60608 4.55784H5.60282C5.03035 4.54814 4.57181 4.10395 4.57285 3.55996C4.57359 3.01611 5.03346 2.57333 5.60593 2.56532H5.60948C6.18847 2.56757 6.65618 3.01471 6.655 3.56474V3.56446ZM9.87765 3.57416C9.87588 4.12307 9.40698 4.56726 8.82903 4.5674H8.82578C8.24916 4.56304 7.78455 4.11731 7.78529 3.56938C7.78618 3.0216 8.25256 2.57727 8.82918 2.5746H8.83229C9.41142 2.57684 9.87913 3.02398 9.8778 3.57416H9.87765Z" fill="#444444"/>
<path d="M2.38472 3.18518H2.38339C2.17373 3.18912 2.00579 3.35175 2.00549 3.55107C2.00505 3.75054 2.1724 3.91359 2.38236 3.91837H2.38339C2.59335 3.91416 2.76114 3.75166 2.76159 3.5522C2.76188 3.35288 2.59454 3.18982 2.38472 3.18518Z" fill="#444444"/>
</svg>
