<svg width="21" height="20" viewBox="0 0 21 20" fill="none" xmlns="http://www.w3.org/2000/svg">
<path d="M5.51822 7.37523C7.04045 7.37523 8.27301 6.08307 8.27301 4.48656C8.27301 3.49155 8.60737 2.58028 7.87333 2.06342C7.43325 1.74916 5.50103 1.60059 4.93031 1.60059C4.25128 1.60059 3.36854 2.18048 2.88807 2.6082C2.29069 3.13677 2.76172 3.60231 2.76172 4.48566C2.76172 6.08307 3.99342 7.37523 5.51822 7.37523ZM3.59804 4.20381C4.1043 4.10746 4.44811 4.28215 4.44811 4.28215L5.29389 3.85083C5.29389 3.85083 4.86326 4.50276 5.25005 4.28215C6.1113 3.9796 7.07483 4.10566 7.56476 4.20651C7.58195 4.31907 7.59742 4.43433 7.59742 4.55409C7.59742 5.7427 6.69664 6.70349 5.57839 6.70349C4.46616 6.70349 3.56452 5.7427 3.56452 4.55409C3.56452 4.43433 3.57999 4.31907 3.59804 4.20381Z" fill="#444444"/>
<path d="M18.9663 4.08134C18.9534 3.91656 18.9405 3.75268 18.9061 3.5942C18.797 2.58208 17.9323 0.525433 15.4508 0.586665C13.3123 0.639792 12.8456 2.32635 12.733 3.35287C12.6574 3.605 12.6084 3.86884 12.5921 4.14347C9.81062 4.65223 10.1166 7.60934 11.815 7.65976C11.6534 6.11548 12.3565 5.18801 12.6273 4.88996C12.8774 6.48467 14.1916 7.71019 15.7835 7.71019C17.2928 7.71019 18.5529 6.60893 18.8941 5.13668C19.1546 5.61753 19.5921 6.60263 19.4855 7.66067C22.1612 7.63635 20.8444 4.43162 18.9663 4.08134ZM15.7835 6.75931C14.5329 6.75931 13.5152 5.70397 13.4868 4.3992C13.9432 4.22542 14.2819 3.39699 14.2819 3.39699C14.2819 3.39699 14.5526 3.49424 14.5526 4.42982C15.0262 4.60271 15.8488 2.97648 15.8488 2.97648V4.25783C16.3705 4.40731 18.0157 4.20921 18.0157 4.20921L18.0767 4.26324C18.0776 4.29025 18.0844 4.31816 18.0844 4.34608C18.0862 5.67696 17.0547 6.75931 15.7835 6.75931Z" fill="#444444"/>
<path d="M16.454 7.79663H15.1002H13.9699L10.6599 11.9748L7.45641 7.84886H3.81459L0 12.2359L0.799361 13.0994L3.53008 10.6583V15.3929H4.0776V18.992H3.72949V19.4143H5.31532V18.992V15.3929H5.90926V18.992V19.4143H7.49165V18.992H7.1444V15.3929H7.80882V10.7474L9.99202 13.0958L10.8842 12.8653L11.3784 12.995L13.8513 10.0298L13.9923 11.2049L11.6956 15.3398H14.3447V18.9398H13.9966V19.3585H15.5807V18.9398H15.5824V15.3398H16.1746V18.9398V19.3585H17.7596V18.9398H17.4115V15.3398H19.4649L17.4416 11.2049L17.5524 9.75873L19.4855 12.4727L20.7662 12.1386L17.7011 7.79663H16.454Z" fill="#444444"/>
</svg>
