<svg width="19" height="19" viewBox="0 0 19 19" fill="none" xmlns="http://www.w3.org/2000/svg">
<g clip-path="url(#clip0)">
<path d="M8.33021 13.0168L6.20744 7.70032L5.448 9.98352H1.12939C2.28674 11.7842 4.29413 13.5038 6.82815 15.6671C7.5528 16.2859 8.32369 16.9438 9.13372 17.6541L9.50003 17.9755L9.86649 17.6541C10.6764 16.9438 11.4473 16.2859 12.1719 15.6671C14.7059 13.5038 16.7133 11.7841 17.8707 9.98352H9.84416L8.33021 13.0168Z" fill="#444444"/>
<path d="M13.9925 1.05969C11.7126 1.06783 10.2611 2.62511 9.50006 4.05371C8.74279 2.63383 7.29741 1.05969 5.04577 1.05969C5.03272 1.05969 5.02026 1.05969 5.00779 1.05969C2.35867 1.0809 0.141672 3.34508 0.00686096 6.21434C-0.0380762 7.16887 0.139208 8.03669 0.495227 8.86806H4.64568L6.11281 4.45836L8.44331 10.2961L9.15593 8.86806H18.5047C18.8609 8.03669 19.0382 7.16887 18.9931 6.21434C18.8584 3.34508 16.6414 1.0809 13.9925 1.05969Z" fill="#444444"/>
</g>
<defs>
<clipPath id="clip0">
<rect width="19" height="19" fill="white"/>
</clipPath>
</defs>
</svg>
