<svg width="20" height="21" viewBox="0 0 20 21" fill="none" xmlns="http://www.w3.org/2000/svg">
<path d="M12.9458 8.24991C13.9222 8.24991 14.7137 7.49438 14.7137 6.56239C14.7137 5.6304 13.9222 4.87488 12.9458 4.87488C11.9695 4.87488 11.178 5.6304 11.178 6.56239C11.178 7.49438 11.9695 8.24991 12.9458 8.24991Z" fill="#444444"/>
<path d="M5.67794 11.2499C6.11189 11.2499 6.46367 10.9141 6.46367 10.4999C6.46367 10.0857 6.11189 9.74988 5.67794 9.74988C5.244 9.74988 4.89221 10.0857 4.89221 10.4999C4.89221 10.9141 5.244 11.2499 5.67794 11.2499Z" fill="#444444"/>
<path d="M5.28125 6.37103C5.49597 6.16591 5.49584 5.83352 5.28095 5.62852C5.06611 5.42356 4.71784 5.42365 4.50308 5.62868C4.28832 5.83376 4.28837 6.16615 4.50317 6.37119C4.71832 6.57566 5.06619 6.57557 5.28125 6.37103Z" fill="#444444"/>
<path d="M19.4641 4.92106C19.116 3.7832 18.3863 2.78586 17.387 2.0822C15.3303 0.54189 13.4227 -0.0953315 11.1991 0.0114326C9.95945 0.0942025 8.72779 0.262859 7.51374 0.516091C5.90585 0.824981 4.75415 1.34793 3.99296 2.1148C3.37154 2.74768 2.89201 3.49499 2.58379 4.311C2.44964 4.68059 2.34046 5.05802 2.25693 5.44094L2.22354 5.57773C2.13038 5.91631 2.00281 6.24538 1.84258 6.56026C1.76777 6.72047 1.69218 6.88051 1.62773 7.044C1.58773 7.12673 1.56629 7.21655 1.56482 7.30769C1.58171 7.4227 1.73172 7.55379 1.89053 7.69258C2.21602 7.91083 2.42605 8.25339 2.46601 8.63119C2.45961 8.81022 2.40671 8.98495 2.31218 9.1397C1.82105 10.1275 1.21918 11.0615 0.517071 11.9255C0.214741 12.2776 0.153382 12.4148 0.152222 12.4712C0.224624 12.5361 0.301925 12.5959 0.383566 12.6501C0.48695 12.7188 0.596177 12.7792 0.710044 12.8306C1.0461 12.9943 1.50652 13.2183 1.59821 13.6781C1.65536 13.9613 1.61845 14.2545 1.49272 14.5169C1.42556 14.6514 1.35651 14.7688 1.29631 14.8706C1.2756 14.9053 1.25296 14.9435 1.23302 14.9785C1.39454 15.1015 1.61897 15.2621 1.71337 15.3286C1.7987 15.3887 1.85487 15.4793 1.86913 15.5796C1.88335 15.68 1.85444 15.7816 1.78895 15.8612C1.7309 15.9337 1.6805 16.0116 1.63856 16.0936C1.66619 16.1091 1.69459 16.1245 1.72256 16.1397C2.06958 16.2827 2.33393 16.5631 2.4465 16.9075C2.50314 17.1733 2.49063 17.4484 2.41007 17.7086C2.39202 17.7862 2.37363 17.8638 2.36289 17.9415C2.3402 18.1662 2.37264 18.3928 2.45763 18.6034C2.54159 18.9521 2.89996 19.1745 3.2679 19.1064C4.4104 18.8404 5.53704 18.5157 6.64289 18.1337L6.64521 18.133C7.02463 18.0092 7.37147 17.8933 7.65305 17.7992C7.95804 17.697 8.18861 17.6203 8.3045 17.5853C9.93693 17.0963 10.268 16.533 10.2584 16.1467C10.2534 15.9396 10.4251 15.7677 10.6421 15.7629C10.859 15.7581 11.0391 15.922 11.0442 16.1291C11.0672 17.0655 10.2247 17.7961 8.54048 18.3007C8.42885 18.3343 8.20709 18.4086 7.91284 18.5069C7.8223 18.5373 7.72485 18.5699 7.62202 18.6042C8.27133 19.29 8.7454 20.1101 9.007 21.0002H17.9572C17.9522 20.9932 17.9469 20.9863 17.9415 20.9795C17.8064 20.8139 17.6871 20.637 17.5851 20.451C17.3909 20.071 17.228 19.6771 17.0978 19.2729C16.8593 18.5059 16.6945 17.7197 16.6056 16.924C16.4498 15.6698 16.6478 14.3986 17.1792 13.242C17.4937 12.6175 17.8815 12.0291 18.3352 11.4882C18.5638 11.1941 18.8002 10.8902 19.0054 10.5814C19.5473 9.77856 19.8386 8.84505 19.8452 7.88995C19.8676 6.88789 19.7393 5.88813 19.4641 4.92106ZM3.043 6.26511C2.96931 6.19477 2.92793 6.09937 2.92797 5.9999C2.92793 5.90044 2.96931 5.80504 3.043 5.73469C3.11669 5.66435 3.21664 5.62485 3.32084 5.6249H3.62149C3.64572 5.54967 3.67735 5.47679 3.71598 5.40722L3.5035 5.20428C3.40424 5.10953 3.36552 4.97147 3.40183 4.84211C3.43814 4.7127 3.54406 4.61164 3.67958 4.57698C3.81515 4.54232 3.95978 4.57932 4.059 4.67403L4.27212 4.87759C4.34478 4.84096 4.42088 4.81085 4.49943 4.78776V4.49991C4.49943 4.29283 4.6753 4.12491 4.89229 4.12491C5.10924 4.12491 5.28516 4.29278 5.28516 4.49991V4.78772C5.36371 4.81085 5.4398 4.84092 5.51247 4.87755L5.72559 4.67403C5.82481 4.57928 5.96948 4.54232 6.10501 4.57698C6.24057 4.61164 6.34645 4.7127 6.38276 4.84211C6.41907 4.97151 6.38031 5.10957 6.28109 5.20428L6.06861 5.40722C6.10724 5.47679 6.13887 5.54963 6.1631 5.6249H6.46375C6.6807 5.6249 6.85662 5.79277 6.85662 5.9999C6.85662 6.20699 6.68075 6.37491 6.46375 6.37491H6.1631C6.13887 6.45013 6.10724 6.52302 6.06861 6.59258L6.28109 6.79553C6.43449 6.94195 6.43449 7.17935 6.28109 7.32582C6.12769 7.47225 5.87895 7.47225 5.72555 7.32582L5.51242 7.12234C5.43976 7.15901 5.36366 7.18911 5.28512 7.21225V7.49997C5.28512 7.70706 5.10925 7.87498 4.89225 7.87498C4.6753 7.87498 4.49939 7.7071 4.49939 7.49997V7.21225C4.42084 7.18911 4.3447 7.15901 4.27204 7.12234L4.05896 7.32582C3.90556 7.47225 3.65685 7.47225 3.50341 7.32582C3.35001 7.17939 3.35001 6.94199 3.50341 6.79553L3.71585 6.59262C3.67726 6.52306 3.64564 6.45017 3.6214 6.37495H3.32075C3.21664 6.37495 3.11669 6.33545 3.043 6.26511ZM7.64226 10.875H7.19358C7.15697 11.0092 7.10081 11.1379 7.02669 11.2572L7.34453 11.5607C7.44379 11.6554 7.4825 11.7935 7.4462 11.9229C7.40989 12.0523 7.30397 12.1533 7.16844 12.188C7.03292 12.2227 6.88824 12.1857 6.78903 12.091L6.47119 11.7874C6.34619 11.8581 6.21144 11.9117 6.07085 11.9467V12.3749C6.07085 12.582 5.89497 12.75 5.67798 12.75C5.46103 12.75 5.28512 12.5821 5.28512 12.3749V11.9467C5.14452 11.9117 5.00977 11.8581 4.88478 11.7874L4.56693 12.091C4.46776 12.1859 4.32296 12.2231 4.18722 12.1885C4.05148 12.1539 3.94547 12.0527 3.90917 11.9231C3.87286 11.7935 3.91187 11.6554 4.01139 11.5607L4.32923 11.2572C4.25511 11.1379 4.19895 11.0092 4.16234 10.875H3.71366C3.49671 10.875 3.32079 10.7071 3.32079 10.5C3.32079 10.2929 3.49666 10.1249 3.71366 10.1249H4.16234C4.19895 9.9907 4.25511 9.86203 4.32923 9.74268L4.01139 9.4392C3.91187 9.34454 3.8729 9.20631 3.90917 9.07674C3.94543 8.94717 4.05148 8.84599 4.18722 8.81133C4.32296 8.77671 4.46772 8.81391 4.56693 8.90891L4.88478 9.21242C5.00977 9.14175 5.14452 9.08815 5.28512 9.05316V8.62491C5.28512 8.41782 5.46099 8.24991 5.67798 8.24991C5.89493 8.24991 6.07085 8.41778 6.07085 8.62491V9.05316C6.21144 9.08815 6.34619 9.14175 6.47119 9.21242L6.78903 8.90891C6.88824 8.8142 7.03292 8.77721 7.16844 8.81186C7.30397 8.84652 7.40989 8.94763 7.4462 9.07699C7.4825 9.20639 7.44375 9.34445 7.34453 9.43916L7.02669 9.74263C7.10081 9.86195 7.15697 9.99066 7.19358 10.1249H7.64226C7.85921 10.1249 8.03513 10.2928 8.03513 10.4999C8.03513 10.707 7.85926 10.875 7.64226 10.875ZM18.5556 7.5012C18.5222 7.68007 18.3592 7.8103 18.1689 7.8103H17.3544C17.264 8.10373 17.1408 8.38706 16.9872 8.65551L17.5635 9.20557C17.6982 9.33408 17.7169 9.53624 17.608 9.6853C17.2303 10.2026 16.7596 10.6519 16.2177 11.0124C16.0615 11.1163 15.8498 11.0985 15.7151 10.9702L15.1388 10.4201C14.8575 10.5667 14.5605 10.6842 14.253 10.7706V11.5482C14.2529 11.7299 14.1165 11.8853 13.9292 11.9174C13.2787 12.0275 12.613 12.0275 11.9626 11.9174C11.7753 11.8853 11.6389 11.7298 11.6388 11.5482V10.7706C11.3312 10.6842 11.0343 10.5668 10.7529 10.4201L10.1767 10.9702C10.0419 11.0985 9.83024 11.1163 9.67409 11.0124C9.13217 10.6519 8.66144 10.2026 8.28375 9.6853C8.17482 9.5362 8.19355 9.33404 8.32826 9.20557L8.90452 8.65551C8.7509 8.38706 8.62784 8.10373 8.53735 7.8103H7.72287C7.53252 7.81034 7.36958 7.68007 7.33615 7.5012C7.22057 6.88022 7.22057 6.24464 7.33615 5.62362C7.36958 5.44475 7.53252 5.31453 7.72287 5.31453H8.53735C8.6278 5.0211 8.7509 4.73776 8.90452 4.46932L8.32826 3.91925C8.1936 3.79075 8.17482 3.58858 8.28375 3.43953C8.66144 2.92224 9.13217 2.47291 9.67409 2.11238C9.83015 2.00808 10.0421 2.02592 10.1767 2.15467L10.7529 2.70473C11.0343 2.5581 11.3312 2.44059 11.6388 2.35425V1.57664C11.6388 1.39502 11.7753 1.23953 11.9626 1.20749C12.6131 1.09798 13.2787 1.09798 13.9292 1.20749C14.1165 1.23953 14.2529 1.39502 14.253 1.57664V2.3543C14.5605 2.44063 14.8575 2.5581 15.1388 2.70478L15.7151 2.15471C15.8496 2.02592 16.0616 2.00808 16.2177 2.11243C16.7596 2.47295 17.2303 2.92228 17.608 3.43957C17.7169 3.58867 17.6982 3.79083 17.5635 3.91929L16.9872 4.46936C17.1408 4.73781 17.2639 5.02114 17.3544 5.31457H18.1689C18.3592 5.31453 18.5222 5.44479 18.5556 5.62366C18.6712 6.24464 18.6712 6.88022 18.5556 7.5012Z" fill="#444444"/>
<path d="M17.0498 6.06454C16.8653 6.06458 16.7057 5.94206 16.6661 5.77008C16.5719 5.35886 16.4017 4.96691 16.1635 4.61266C16.0634 4.46439 16.0853 4.26948 16.2161 4.14483L16.7674 3.6186C16.549 3.35922 16.3017 3.12321 16.03 2.91473L15.4787 3.4408C15.3481 3.56545 15.1442 3.58649 14.9888 3.49133C14.6175 3.26369 14.2067 3.10111 13.7757 3.01124C13.5955 2.97342 13.4672 2.82109 13.4672 2.64501V1.90164C13.1206 1.86612 12.771 1.86612 12.4244 1.90164V2.64505C12.4244 2.82109 12.2961 2.97342 12.116 3.01128C11.6849 3.10119 11.2741 3.26377 10.9029 3.49137C10.7475 3.5869 10.5433 3.56581 10.4129 3.44084L9.86163 2.91481C9.5899 3.1233 9.34265 3.3593 9.12424 3.61868L9.67553 4.14492C9.80633 4.26956 9.82825 4.46447 9.72808 4.61274C9.48991 4.967 9.31971 5.35894 9.22552 5.77017C9.18595 5.94215 9.02632 6.06466 8.84185 6.06462H8.06304C8.0257 6.39558 8.0257 6.7294 8.06304 7.06036H8.84185C9.02632 7.06032 9.18595 7.18283 9.22552 7.35481C9.31971 7.76604 9.48991 8.15798 9.72808 8.51224C9.82825 8.66051 9.80633 8.85542 9.67553 8.98006L9.12424 9.50626C9.34265 9.76564 9.5899 10.0016 9.86163 10.2101L10.4129 9.68406C10.5433 9.559 10.7475 9.53796 10.9029 9.63353C11.2741 9.86116 11.6849 10.0238 12.116 10.1136C12.2961 10.1514 12.4244 10.3038 12.4244 10.4798V11.2233C12.771 11.2588 13.1206 11.2588 13.4672 11.2233V10.4798C13.4672 10.3038 13.5955 10.1515 13.7756 10.1136C14.2067 10.0237 14.6175 9.86112 14.9887 9.63353C15.1442 9.53833 15.3481 9.55937 15.4787 9.68406L16.0299 10.2101C16.3017 10.0016 16.5489 9.76564 16.7673 9.50626L16.216 8.98002C16.0852 8.85538 16.0633 8.66047 16.1635 8.5122C16.4017 8.15794 16.5719 7.766 16.6661 7.35477C16.7056 7.18279 16.8653 7.06028 17.0497 7.06032H17.8285C17.8659 6.72936 17.8659 6.39553 17.8285 6.06458L17.0498 6.06454ZM12.9459 8.99992C11.5356 8.99992 10.3923 7.90861 10.3923 6.56239C10.3923 5.21621 11.5355 4.12486 12.9459 4.12486C14.3562 4.12486 15.4995 5.21617 15.4995 6.56239C15.4978 7.90795 14.3555 8.99836 12.9459 8.99992Z" fill="#444444"/>
</svg>
