<svg width="20" height="16" viewBox="0 0 20 16" fill="none" xmlns="http://www.w3.org/2000/svg">
<path d="M3.05944 0.360229C3.0589 0.360229 3.0583 0.360229 3.05776 0.360229C2.8686 0.360229 2.69069 0.433967 2.55634 0.567974C2.42052 0.703463 2.3457 0.883868 2.3457 1.07592V11.8076C2.3457 12.2011 2.66712 12.5221 3.06227 12.5231C4.72814 12.5271 7.51912 12.8743 9.44452 14.8892V3.65815C9.44452 3.52475 9.41045 3.39943 9.34614 3.29573C7.76586 0.750803 4.72908 0.364135 3.05944 0.360229Z" fill="#444444"/>
<path d="M17.6544 11.8076V1.0758C17.6544 0.883745 17.5796 0.703341 17.4438 0.567852C17.3094 0.433845 17.1314 0.360107 16.9424 0.360107C16.9418 0.360107 16.9412 0.360107 16.9407 0.360107C15.2711 0.36408 12.2343 0.750748 10.654 3.29567C10.5897 3.39938 10.5557 3.5247 10.5557 3.6581V14.889C12.4811 12.8742 15.272 12.527 16.9379 12.523C17.333 12.522 17.6544 12.201 17.6544 11.8076Z" fill="#444444"/>
<path d="M19.2845 2.83508H18.7656V11.8076C18.7656 12.8124 17.9469 13.6317 16.9406 13.6342C15.5276 13.6375 13.1978 13.9138 11.5477 15.4755C14.4015 14.7768 17.4098 15.231 19.1243 15.6217C19.3384 15.6705 19.5596 15.6201 19.7311 15.4834C19.902 15.347 20.0001 15.1432 20.0001 14.9244V3.55064C20.0001 3.15609 19.6791 2.83508 19.2845 2.83508Z" fill="#444444"/>
<path d="M1.23448 11.8076V2.83508H0.715558C0.321079 2.83508 0 3.15609 0 3.55064V14.9242C0 15.1431 0.0980475 15.3468 0.268957 15.4832C0.440338 15.6198 0.661349 15.6704 0.875761 15.6215C2.59024 15.2307 5.59867 14.7766 8.45228 15.4753C6.80231 13.9137 4.47247 13.6375 3.05947 13.6341C2.05321 13.6317 1.23448 12.8124 1.23448 11.8076Z" fill="#444444"/>
</svg>
