<svg width="21" height="21" viewBox="0 0 21 21" fill="none" xmlns="http://www.w3.org/2000/svg">
<g clip-path="url(#clip0)">
<path d="M18.7374 8.56689H10.8296C9.58196 8.56689 8.56699 9.58187 8.56699 10.8295V15.1259L6.51813 16.5893C6.35647 16.7046 6.2605 16.8911 6.2605 17.0898C6.2605 17.2886 6.35647 17.4751 6.51813 17.5905L8.59166 19.0715C8.75364 20.1613 9.69556 21.0001 10.8296 21.0001H18.7374C19.985 21.0001 21 19.9851 21 18.7373V10.8295C21 9.58187 19.985 8.56689 18.7374 8.56689ZM16.0785 17.2119C15.9335 17.2119 15.8215 17.1659 15.7886 17.0406L15.538 16.1641H14.0288L13.7785 17.0406C13.7455 17.1659 13.6335 17.2119 13.4885 17.2119C13.2578 17.2119 12.9481 17.0671 12.9481 16.8562C12.9481 16.8429 12.9547 16.8166 12.9613 16.7902L14.2332 12.6451C14.2925 12.4474 14.5364 12.3549 14.7802 12.3549C15.0306 12.3549 15.2745 12.4474 15.3338 12.6451L16.6057 16.7902C16.6123 16.8166 16.6189 16.8363 16.6189 16.8562C16.6189 17.0603 16.3092 17.2119 16.0785 17.2119Z" fill="#444444"/>
<path d="M14.2068 15.4917H15.3536L14.78 13.4686L14.2068 15.4917Z" fill="#444444"/>
<path d="M7.33651 10.8294C7.33651 10.0033 7.62538 9.2439 8.10651 8.64516C7.4046 8.64516 6.75332 8.42551 6.21643 8.05236C5.67954 8.42567 5.02826 8.64516 4.32619 8.64516C4.13473 8.64516 3.97932 8.48975 3.97932 8.29813C3.97932 8.10651 4.13473 7.95126 4.32619 7.95126C4.81789 7.95126 5.27804 7.81508 5.67201 7.57924C5.19681 7.06638 4.88086 6.40421 4.80444 5.67137H4.32635C4.13473 5.67137 3.97932 5.51612 3.97932 5.3245C3.97932 5.13288 4.13473 4.97747 4.32635 4.97747H5.86972V4.13505C5.86972 3.94327 6.02497 3.78802 6.21659 3.78802C6.40821 3.78802 6.56346 3.94327 6.56346 4.13505V4.97747H8.10683C8.29845 4.97747 8.45387 5.13288 8.45387 5.3245C8.45387 5.51612 8.29845 5.67137 8.10683 5.67137H7.62875C7.55232 6.40421 7.23637 7.06638 6.76117 7.57924C7.15498 7.8154 7.61529 7.95126 8.10683 7.95126C8.28996 7.95126 8.43961 8.09322 8.45258 8.27314C9.07663 7.69251 9.91216 7.33635 10.8297 7.33635H12.4332V5.87421L14.482 4.41078C14.6435 4.29543 14.7395 4.10893 14.7395 3.91026C14.7395 3.71143 14.6435 3.52494 14.482 3.40958L12.4085 1.92854C12.2464 0.838737 11.3045 0 10.1704 0H2.26275C1.01498 0 0 1.01498 0 2.26259V10.1706C0 11.4182 1.01498 12.4332 2.26275 12.4332H7.33651V10.8294Z" fill="#444444"/>
<path d="M6.21647 7.14567C6.59618 6.75169 6.85397 6.24012 6.92943 5.67151H5.50366C5.57912 6.24012 5.83707 6.75169 6.21647 7.14567Z" fill="#444444"/>
</g>
<defs>
<clipPath id="clip0">
<rect width="21" height="21" fill="white"/>
</clipPath>
</defs>
</svg>
