<svg width="21" height="21" viewBox="0 0 21 21" fill="none" xmlns="http://www.w3.org/2000/svg">
<path d="M8.54498 10.0121L9.83938 8.71769C8.41388 8.20952 6.75768 8.52495 5.61829 9.66434C4.04211 11.2408 4.04211 13.8052 5.61829 15.3814C7.19459 16.9577 9.75911 16.9577 11.335 15.3814C12.4724 14.2444 12.7891 12.5931 12.2853 11.1697L10.9874 12.4676C11.0012 13.1284 10.7571 13.7934 10.2539 14.2964C9.27521 15.2754 7.68233 15.2754 6.70312 14.2964C5.72439 13.3176 5.72439 11.7245 6.70312 10.7458C7.20961 10.2393 7.88 9.99515 8.54498 10.0121Z" fill="#444444"/>
<path d="M13.1677 10.2874C14.0857 12.2177 13.7469 14.6016 12.1512 16.1974C10.1253 18.2233 6.82859 18.2233 4.80265 16.1974C2.7767 14.1714 2.7767 10.8748 4.80265 8.84881C6.40057 7.25077 8.78917 6.91311 10.721 7.83608L12.6596 5.89749C9.6326 3.98606 5.57217 4.34799 2.93699 6.98316C-0.11767 10.0378 -0.11767 15.0082 2.93699 18.0629C5.99166 21.1176 10.9621 21.1176 14.0167 18.0629C16.6496 15.4301 17.0135 11.3739 15.1071 8.34797L13.1677 10.2874Z" fill="#444444"/>
<path d="M20.295 3.29505C20.2086 3.04691 19.9929 2.87424 19.7318 2.84396L18.319 2.68102L18.1559 1.26826C18.1257 1.00715 17.9531 0.791454 17.7049 0.704936C17.4569 0.618539 17.1874 0.680183 17.0016 0.865955L14.2086 3.65902C14.0612 3.80634 13.9903 4.00954 14.0143 4.2167L14.2164 5.96784L8.93906 11.245C8.45985 11.0731 7.90241 11.1783 7.51933 11.5617C6.99014 12.0907 6.99014 12.9517 7.51933 13.4807C8.04829 14.0097 8.90914 14.0099 9.43833 13.4807C9.82165 13.0973 9.92691 12.5402 9.75496 12.0608L15.0321 6.7835L16.7833 6.98574C16.9902 7.00965 17.1936 6.93875 17.341 6.79131L20.134 3.99836C20.3198 3.81247 20.3816 3.54307 20.295 3.29505Z" fill="#444444"/>
</svg>
