<svg width="19" height="18" viewBox="0 0 19 18" fill="none" xmlns="http://www.w3.org/2000/svg">
<path d="M4.44014 3.64971L12.0145 1.69103L11.6134 0.922923C11.351 0.423653 10.7109 0.217477 10.1839 0.466101L3.4032 3.64971H4.44014Z" fill="#444444"/>
<path d="M14.3657 1.74756C14.2718 1.74756 14.1779 1.75969 14.0841 1.78394L12.3046 2.24481L6.87024 3.64963H13.0386H15.7269L15.3941 2.49343C15.2661 2.04267 14.8351 1.74756 14.3657 1.74756Z" fill="#444444"/>
<path d="M16.8386 4.35718H16.5954H16.2647H15.934H13.4099H4.13498H2.91881H1.89467H1.70477H1.06895C0.731836 4.35718 0.430994 4.50474 0.2347 4.73719C0.145087 4.84432 0.0768108 4.96762 0.0384054 5.10305C0.0149354 5.18795 0 5.27689 0 5.36785V5.48913V6.64129V16.6287C0 17.1866 0.477934 17.6394 1.06682 17.6394H16.8365C17.4254 17.6394 17.9033 17.1866 17.9033 16.6287V13.8089H11.5728C10.5722 13.8089 9.75924 13.0388 9.75924 12.0908V11.165V10.8517V10.5384V9.84308C9.75924 9.37818 9.95551 8.95574 10.2734 8.64647C10.5551 8.37155 10.9327 8.18559 11.3552 8.1391C11.4256 8.13103 11.4981 8.12697 11.5707 8.12697H17.0157H17.3464H17.6771H17.9033V5.36785C17.9054 4.80996 17.4275 4.35718 16.8386 4.35718Z" fill="#444444"/>
<path d="M18.6522 9.09314C18.5455 9.00016 18.4197 8.92942 18.2788 8.88293C18.17 8.84858 18.0548 8.82837 17.9332 8.82837H17.9054H17.8841H17.5534H16.3607H11.5728C10.9839 8.82837 10.506 9.28113 10.506 9.83904V10.3423V10.6556V10.9689V12.0888C10.506 12.6467 10.9839 13.0994 11.5728 13.0994H17.9054H17.9332C18.0548 13.0994 18.17 13.0792 18.2788 13.0449C18.4197 13.0004 18.5455 12.9276 18.6522 12.8346C18.8656 12.6507 19 12.3839 19 12.0888V9.83904C19 9.5439 18.8656 9.27707 18.6522 9.09314ZM13.8003 11.165C13.8003 11.444 13.5614 11.6703 13.2669 11.6703H12.9127C12.6183 11.6703 12.3793 11.444 12.3793 11.165V10.8295C12.3793 10.6678 12.4583 10.5242 12.5841 10.4333C12.6759 10.3666 12.789 10.3241 12.9127 10.3241H13.0023H13.2669C13.5614 10.3241 13.8003 10.5505 13.8003 10.8295V11.165Z" fill="#444444"/>
</svg>
